<svg xmlns="http://www.w3.org/2000/svg" xmlns:xlink="http://www.w3.org/1999/xlink" width="100" zoomAndPan="magnify" viewBox="0 0 75 30.000001" height="40" preserveAspectRatio="xMidYMid meet" version="1.0"><defs><clipPath id="7e4443d601"><path d="M 1.210938 2.902344 L 73.789062 2.902344 L 73.789062 24.675781 L 1.210938 24.675781 Z M 1.210938 2.902344 " clip-rule="nonzero"/></clipPath></defs><g clip-path="url(#7e4443d601)"><path fill="#f5a5b5" d="M 14.371094 14.441406 C 14.609375 14.523438 14.886719 14.640625 15.203125 14.800781 C 15.753906 15.117188 16.230469 15.550781 16.625 16.105469 C 17.101562 16.894531 17.335938 17.84375 17.335938 18.949219 C 17.335938 22.746094 15.042969 24.640625 10.457031 24.640625 L 1.566406 24.640625 C 1.328125 24.640625 1.210938 24.523438 1.210938 24.285156 L 1.210938 6.023438 C 1.210938 5.785156 1.328125 5.664062 1.566406 5.664062 L 10.9375 5.664062 C 12.597656 5.664062 13.9375 6.121094 14.96875 7.03125 C 15.992188 7.9375 16.507812 9.144531 16.507812 10.648438 C 16.507812 11.515625 16.3125 12.289062 15.917969 12.960938 C 15.519531 13.632812 15.007812 14.128906 14.371094 14.441406 Z M 10.339844 21.914062 C 11.683594 21.914062 12.671875 21.695312 13.304688 21.261719 C 13.9375 20.828125 14.253906 20.074219 14.253906 19.007812 C 14.253906 17.941406 13.9375 17.191406 13.304688 16.753906 C 12.671875 16.320312 11.683594 16.105469 10.339844 16.105469 L 4.769531 16.105469 C 4.449219 16.105469 4.292969 16.222656 4.292969 16.460938 L 4.292969 21.5625 C 4.292969 21.796875 4.449219 21.917969 4.769531 21.917969 L 10.339844 21.917969 Z M 4.769531 8.394531 C 4.53125 8.394531 4.410156 8.511719 4.410156 8.75 L 4.410156 13.019531 C 4.410156 13.257812 4.53125 13.375 4.769531 13.375 L 10.222656 13.375 C 12.277344 13.375 13.304688 12.546875 13.304688 10.882812 C 13.304688 9.222656 12.277344 8.394531 10.222656 8.394531 Z M 33.585938 14.441406 C 33.824219 14.523438 34.0625 14.640625 34.296875 14.800781 C 34.929688 15.117188 35.40625 15.550781 35.722656 16.105469 C 36.273438 16.894531 36.550781 17.84375 36.550781 18.949219 C 36.550781 22.746094 34.257812 24.640625 29.671875 24.640625 L 20.777344 24.640625 C 20.539062 24.640625 20.421875 24.523438 20.421875 24.285156 L 20.421875 6.023438 C 20.421875 5.785156 20.539062 5.664062 20.777344 5.664062 L 30.148438 5.664062 C 31.730469 5.664062 33.054688 6.121094 34.121094 7.03125 C 35.1875 7.9375 35.722656 9.144531 35.722656 10.648438 C 35.722656 11.515625 35.523438 12.289062 35.132812 12.960938 C 34.734375 13.632812 34.21875 14.128906 33.585938 14.441406 Z M 23.863281 8.394531 C 23.625 8.394531 23.503906 8.511719 23.503906 8.75 L 23.503906 13.019531 C 23.503906 13.257812 23.625 13.375 23.863281 13.375 L 29.433594 13.375 C 31.488281 13.375 32.519531 12.546875 32.519531 10.882812 C 32.519531 9.222656 31.488281 8.394531 29.433594 8.394531 Z M 29.554688 21.914062 C 30.898438 21.914062 31.886719 21.695312 32.519531 21.261719 C 33.148438 20.828125 33.464844 20.074219 33.464844 19.007812 C 33.464844 17.941406 33.148438 17.191406 32.519531 16.753906 C 31.886719 16.320312 30.894531 16.105469 29.554688 16.105469 L 23.863281 16.105469 C 23.625 16.105469 23.503906 16.222656 23.503906 16.460938 L 23.503906 21.5625 C 23.503906 21.796875 23.625 21.917969 23.863281 21.917969 L 29.554688 21.917969 Z M 53.511719 5.902344 C 53.589844 5.746094 53.667969 5.664062 53.75 5.664062 L 56.832031 5.664062 C 56.910156 5.664062 56.988281 5.707031 57.070312 5.785156 C 57.148438 5.863281 57.148438 5.945312 57.070312 6.023438 L 47.226562 24.523438 C 47.144531 24.601562 47.046875 24.640625 46.929688 24.640625 C 46.808594 24.640625 46.710938 24.601562 46.632812 24.523438 L 36.789062 6.023438 C 36.710938 5.945312 36.6875 5.863281 36.730469 5.785156 C 36.769531 5.707031 36.867188 5.664062 37.027344 5.664062 L 39.992188 5.664062 C 40.148438 5.664062 40.265625 5.746094 40.347656 5.902344 L 46.632812 17.761719 C 46.632812 17.84375 46.710938 17.882812 46.871094 17.882812 C 47.027344 17.882812 47.144531 17.84375 47.226562 17.761719 Z M 57.070312 21.679688 C 56.988281 21.835938 56.871094 21.914062 56.710938 21.914062 L 53.628906 21.914062 C 53.550781 21.914062 53.488281 21.875 53.453125 21.796875 C 53.410156 21.71875 53.390625 21.640625 53.390625 21.558594 L 63.238281 3.058594 C 63.316406 2.980469 63.433594 2.9375 63.59375 2.9375 C 63.75 2.9375 63.871094 2.980469 63.949219 3.058594 L 73.789062 21.558594 C 73.789062 21.640625 73.769531 21.71875 73.730469 21.796875 C 73.691406 21.875 73.628906 21.914062 73.550781 21.914062 L 70.46875 21.914062 C 70.308594 21.914062 70.191406 21.835938 70.113281 21.679688 L 63.945312 9.816406 C 63.867188 9.660156 63.746094 9.578125 63.589844 9.578125 C 63.429688 9.578125 63.308594 9.660156 63.234375 9.816406 Z M 57.070312 21.679688 " fill-opacity="1" fill-rule="nonzero"/></g></svg>